<svg width="35" height="38" viewBox="0 0 35 38" fill="none" xmlns="http://www.w3.org/2000/svg">
<path d="M13.0967 18.9029L2.3301 22.4949C0.875162 23.0774 0.0991932 24.5336 0.0991932 26.184C0.0991932 26.9607 0.293185 27.7373 0.68117 28.514C1.55413 29.8731 3.10607 30.7468 4.65801 30.7468C5.43398 30.7468 6.20995 30.4556 6.88892 29.8731L15.1336 21.8154L12.5147 33.7563C12.4177 33.9505 12.4177 34.1447 12.4177 34.3388C12.4177 36.2805 14.4546 37.8338 16.9765 37.8338C19.5954 37.8338 21.6323 36.2805 21.6323 34.3388C21.6323 34.1447 21.6323 33.9505 21.5353 33.7563L18.8194 21.8154L27.1611 29.8731C27.8401 30.4556 28.616 30.7468 29.489 30.7468C30.9439 30.7468 32.4959 29.9702 33.3688 28.514C33.7568 27.8344 33.9508 26.9607 33.9508 26.184C33.9508 24.5336 33.1749 22.9803 31.7199 22.4949L20.8564 18.9029L31.9139 15.2138C33.2719 14.7284 34.0478 13.3693 34.0478 11.816C34.0478 10.9423 33.8538 10.0685 33.3688 9.29189C32.4959 7.93276 31.0409 7.15611 29.683 7.15611C28.713 7.15611 27.8401 7.44735 27.1611 8.12692L18.8194 15.9905L21.5353 4.24367C21.6323 4.04951 21.6323 3.85535 21.6323 3.66118C21.6323 1.71956 19.5954 0.16626 16.9765 0.16626C14.4546 0.16626 12.4177 1.71956 12.4177 3.5641C12.4177 3.85535 12.4177 4.04951 12.5147 4.24367L15.1336 15.9905L6.79192 7.93276C6.11295 7.35027 5.33698 7.05903 4.46402 7.05903C3.00908 7.05903 1.36014 7.93276 0.584174 9.19481C0.196189 9.97146 0.00219727 10.8452 0.00219727 11.6218C0.00219727 13.1751 0.68117 14.6314 2.03911 15.1168L13.0967 18.9029Z" fill="#64AB2B"/>
</svg>
